HIERARCHY
ROOT Hips
{
 OFFSET 0.000000 0.000000 0.000000
 CHANNELS 6 Xposition Yposition Zposition Yrotation Xrotation Zrotation
 JOINT Chest
 {
  OFFSET 0.000000 10.383400 0.001500
  CHANNELS 3 Yrotation Xrotation Zrotation
  JOINT Chest2
  {
   OFFSET 0.000000 10.418200 -0.003100
   CHANNELS 3 Yrotation Xrotation Zrotation
   JOINT Chest3
   {
    OFFSET 0.000000 10.375100 0.000000
    CHANNELS 3 Yrotation Xrotation Zrotation
    JOINT Chest4
    {
     OFFSET 0.000000 10.364600 0.000000
     CHANNELS 3 Yrotation Xrotation Zrotation
     JOINT Neck
     {
      OFFSET 0.000000 15.642200 0.000000
      CHANNELS 3 Yrotation Xrotation Zrotation
      JOINT Head
      {
       OFFSET 0.000000 9.697300 -0.006500
       CHANNELS 3 Yrotation Xrotation Zrotation
       End Site
       {
        OFFSET 0.000000 18.492200 -0.003400
       }
      }
     }
     JOINT RightCollar
     {
      OFFSET -3.166800 10.349300 0.000000
      CHANNELS 3 Yrotation Xrotation Zrotation
      JOINT RightShoulder
      {
       OFFSET -14.729700 0.000000 0.000000
       CHANNELS 3 Yrotation Xrotation Zrotation
       JOINT RightElbow
       {
        OFFSET 0.000000 -32.224300 0.000000
        CHANNELS 3 Yrotation Xrotation Zrotation
        JOINT RightWrist
        {
         OFFSET 0.000000 -26.084100 0.000000
         CHANNELS 3 Yrotation Xrotation Zrotation
         End Site
         {
          OFFSET 0.000000 -19.319400 0.000000
         }
        }
       }
      }
     }
     JOINT LeftCollar
     {
      OFFSET 3.166800 10.349300 0.000000
      CHANNELS 3 Yrotation Xrotation Zrotation
      JOINT LeftShoulder
      {
       OFFSET 14.729700 0.000000 0.000000
       CHANNELS 3 Yrotation Xrotation Zrotation
       JOINT LeftElbow
       {
        OFFSET 0.000000 -32.224300 0.000000
        CHANNELS 3 Yrotation Xrotation Zrotation
        JOINT LeftWrist
        {
         OFFSET 0.000000 -26.084100 0.000000
         CHANNELS 3 Yrotation Xrotation Zrotation
         End Site
         {
          OFFSET 0.000000 -19.319400 0.000000
         }
        }
       }
      }
     }
    }
   }
  }
 }
 JOINT RightHip
 {
  OFFSET -8.428900 -0.007500 -0.000800
  CHANNELS 3 Yrotation Xrotation Zrotation
  JOINT RightKnee
  {
   OFFSET 0.000000 -43.834600 0.000700
   CHANNELS 3 Yrotation Xrotation Zrotation
   JOINT RightAnkle
   {
    OFFSET 0.000000 -42.757000 0.001200
    CHANNELS 3 Yrotation Xrotation Zrotation
    JOINT RightToe
    {
     OFFSET 0.000000 -6.946900 15.649300
     CHANNELS 3 Yrotation Xrotation Zrotation
     End Site
     {
      OFFSET 0.000000 -1.580800 6.825800
     }
    }
   }
  }
 }
 JOINT LeftHip
 {
  OFFSET 8.428900 -0.007500 -0.000800
  CHANNELS 3 Yrotation Xrotation Zrotation
  JOINT LeftKnee
  {
   OFFSET 0.000000 -43.834600 0.000700
   CHANNELS 3 Yrotation Xrotation Zrotation
   JOINT LeftAnkle
   {
    OFFSET 0.000000 -42.757000 0.001200
    CHANNELS 3 Yrotation Xrotation Zrotation
    JOINT LeftToe
    {
     OFFSET 0.000000 -6.946900 15.649300
     CHANNELS 3 Yrotation Xrotation Zrotation
     End Site
     {
      OFFSET 0.000000 -1.580800 6.825800
     }
    }
   }
  }
 }
}
MOTION
Frames: 5
Frame Time: 0.008333
123.766985 126.868976 33.411315 -22.065109 -27.136315 -3.906965 -4.249883 18.871298 0.797462 -0.522886 2.262849 0.170327 -0.864675 3.741867 0.273549 -3.683051 16.332316 0.777247 7.347584 11.871069 -2.414403 14.940968 -13.042750 -7.620141 1.998807 -10.430317 -7.349692 19.303971 -10.961231 -28.145520 71.748728 -52.429759 -7.565742 13.137949 -44.514309 -47.070643 -5.382023 -11.423824 -2.100824 -8.187153 -4.569735 33.361217 -60.572999 -59.291951 7.300724 -16.997261 -52.747608 38.070306 -4.858359 -40.945716 7.432435 -30.916048 74.817194 -25.748840 2.610878 -2.840393 3.261818 0.001413 -0.003323 0.000627 -8.649146 -34.320591 -7.261673 6.401510 73.152602 6.724294 -10.394878 -9.361935 -2.892506 0.000033 -0.000560 0.000015
123.766917 126.869502 33.407672 -22.063622 -27.141459 -3.909966 -4.240129 18.864986 0.799661 -0.527983 2.267806 0.171629 -0.848306 3.717479 0.266968 -3.639212 16.290374 0.757925 7.312438 11.934267 -2.364530 14.950735 -12.995627 -7.594252 1.951467 -10.407230 -7.313462 19.261545 -10.966694 -28.108446 71.757728 -52.377734 -7.535471 13.140310 -44.497485 -47.065762 -5.437365 -11.409282 -2.069219 -8.180288 -4.558944 33.347584 -60.565979 -59.265988 7.286892 -17.002834 -52.695791 38.009249 -4.872477 -40.943759 7.437614 -30.875329 74.822375 -25.694874 2.602372 -2.833516 3.238456 0.006631 -0.003391 0.002943 -8.660952 -34.312318 -7.254731 6.422148 73.151221 6.736304 -10.373420 -9.366682 -2.899350 0.000755 -0.001383 0.000335
123.768344 126.870684 33.406110 -22.050819 -27.155334 -3.907712 -4.241898 18.867475 0.790583 -0.515095 2.254059 0.167487 -0.845450 3.713688 0.265348 -3.631782 16.289040 0.751659 7.303221 11.958892 -2.341011 14.989828 -12.919442 -7.549714 1.948007 -10.468803 -7.299399 19.212125 -10.926832 -28.062504 71.764921 -52.353294 -7.495263 13.161839 -44.415599 -47.061442 -5.458353 -11.438827 -2.051246 -8.157058 -4.585228 33.321389 -60.570777 -59.222905 7.241237 -17.010226 -52.637308 37.958952 -4.879869 -40.934639 7.425438 -30.868755 74.829340 -25.684256 2.598905 -2.828635 3.236244 0.004020 -0.003540 0.001784 -8.677027 -34.295318 -7.260061 6.477638 73.143530 6.783077 -10.384944 -9.365552 -2.905668 0.000391 -0.001694 0.000173
123.769321 126.873277 33.407284 -22.038146 -27.187074 -3.903240 -4.237119 18.875677 0.774902 -0.513149 2.252307 0.166453 -0.819158 3.690054 0.254723 -3.641381 16.313947 0.757486 7.309974 11.975764 -2.324244 15.001317 -12.868967 -7.503366 1.933235 -10.512177 -7.284201 19.173232 -10.915135 -28.026836 71.769631 -52.290497 -7.467740 13.157293 -44.404160 -47.040454 -5.477051 -11.475559 -2.029821 -8.145068 -4.573211 33.296900 -60.554252 -59.189628 7.240890 -16.982759 -52.611167 37.869037 -4.883141 -40.911391 7.400554 -30.843968 74.844196 -25.653239 2.601864 -2.817137 3.234241 -0.000225 -0.008570 -0.000100 -8.682848 -34.258006 -7.272444 6.539280 73.134999 6.841798 -10.416253 -9.364939 -2.911377 0.000581 -0.001716 0.000258
123.770621 126.874032 33.404463 -22.033822 -27.196722 -3.902581 -4.218609 18.865565 0.772317 -0.511556 2.251386 0.165518 -0.827046 3.695950 0.256269 -3.634010 16.312898 0.753946 7.353551 11.992321 -2.317777 14.974056 -12.839545 -7.455433 1.922683 -10.549526 -7.276170 19.139611 -10.919725 -27.998398 71.773747 -52.234835 -7.428966 13.148045 -44.396500 -47.024660 -5.487496 -11.522197 -2.009697 -8.146910 -4.523947 33.277093 -60.536262 -59.175668 7.247935 -16.997326 -52.552561 37.821852 -4.885823 -40.905867 7.391377 -30.792078 74.854442 -25.591020 2.585314 -2.810028 3.228139 -0.001018 -0.007058 -0.000452 -8.686287 -34.243476 -7.270789 6.537824 73.130172 6.837571 -10.425905 -9.365086 -2.912312 0.000263 -0.000681 0.000117
